<mxfile host="65bd71144e">
    <diagram id="aPiT-PGSKgs39lGWBKkV" name="Page-1">
        <mxGraphModel dx="338" dy="1142" grid="1" gridSize="10" guides="1" tooltips="1" connect="1" arrows="1" fold="1" page="1" pageScale="1" pageWidth="827" pageHeight="1169" math="0" shadow="0">
            <root>
                <mxCell id="0"/>
                <mxCell id="1" parent="0"/>
                <mxCell id="bsmPjeTT9gQ6tpzZUVyZ-22" value="" style="rounded=0;whiteSpace=wrap;html=1;dashed=1;fillColor=#dae8fc;strokeColor=#6c8ebf;labelBackgroundColor=none;" parent="1" vertex="1">
                    <mxGeometry x="90" y="440" width="850" height="250" as="geometry"/>
                </mxCell>
                <mxCell id="bsmPjeTT9gQ6tpzZUVyZ-11" value="west europe" style="rounded=0;whiteSpace=wrap;html=1;dashed=1;fillColor=none;align=center;verticalAlign=bottom;labelBackgroundColor=none;strokeColor=#99CCFF;" parent="1" vertex="1">
                    <mxGeometry x="105" y="790" width="191" height="250" as="geometry"/>
                </mxCell>
                <mxCell id="bsmPjeTT9gQ6tpzZUVyZ-6" value="west europe" style="rounded=0;whiteSpace=wrap;html=1;dashed=1;fillColor=none;align=center;verticalAlign=bottom;labelBackgroundColor=none;" parent="1" vertex="1">
                    <mxGeometry x="105" y="520" width="405" height="160" as="geometry"/>
                </mxCell>
                <mxCell id="bsmPjeTT9gQ6tpzZUVyZ-1" value="contoso&lt;br&gt;WAN" style="aspect=fixed;html=1;points=[];align=center;image;fontSize=12;image=img/lib/azure2/networking/Virtual_WANs.svg;labelBackgroundColor=none;" parent="1" vertex="1">
                    <mxGeometry x="482.5" y="410" width="65" height="64" as="geometry"/>
                </mxCell>
                <mxCell id="bsmPjeTT9gQ6tpzZUVyZ-3" value="VPN &lt;br&gt;gateway" style="aspect=fixed;html=1;points=[];align=center;image;fontSize=12;image=img/lib/azure2/networking/Virtual_Network_Gateways.svg;labelBackgroundColor=none;" parent="1" vertex="1">
                    <mxGeometry x="405.06999999999994" y="544" width="38.43" height="51" as="geometry"/>
                </mxCell>
                <mxCell id="bsmPjeTT9gQ6tpzZUVyZ-4" value="we-hub&lt;br&gt;10.12.1.0/24" style="sketch=0;aspect=fixed;html=1;points=[];align=center;image;fontSize=12;image=img/lib/mscae/Virtual_WANs.svg;labelBackgroundColor=none;" parent="1" vertex="1">
                    <mxGeometry x="150" y="544" width="50" height="50" as="geometry"/>
                </mxCell>
                <mxCell id="bsmPjeTT9gQ6tpzZUVyZ-7" value="north europe" style="rounded=0;whiteSpace=wrap;html=1;dashed=1;fillColor=none;align=center;verticalAlign=bottom;labelBackgroundColor=none;" parent="1" vertex="1">
                    <mxGeometry x="521" y="520" width="200" height="160" as="geometry"/>
                </mxCell>
                <mxCell id="bsmPjeTT9gQ6tpzZUVyZ-9" value="ne-hub&lt;br&gt;10.12.2.0/24" style="sketch=0;aspect=fixed;html=1;points=[];align=center;image;fontSize=12;image=img/lib/mscae/Virtual_WANs.svg;labelBackgroundColor=none;" parent="1" vertex="1">
                    <mxGeometry x="596" y="545" width="50" height="50" as="geometry"/>
                </mxCell>
                <mxCell id="bsmPjeTT9gQ6tpzZUVyZ-10" value="spoke-01&lt;br&gt;10.13.1.0/24" style="aspect=fixed;html=1;points=[];align=center;image;fontSize=12;image=img/lib/azure2/networking/Virtual_Networks.svg;dashed=1;fillColor=none;labelBackgroundColor=none;" parent="1" vertex="1">
                    <mxGeometry x="185.75" y="810" width="29.5" height="20" as="geometry"/>
                </mxCell>
                <mxCell id="bsmPjeTT9gQ6tpzZUVyZ-12" value="Subnet 10.13.1.0/24" style="sketch=0;outlineConnect=0;gradientColor=none;html=1;whiteSpace=wrap;fontSize=12;fontStyle=0;shape=mxgraph.aws4.group;grIcon=mxgraph.aws4.group_subnet;strokeColor=#879196;fillColor=none;verticalAlign=top;align=left;spacingLeft=30;fontColor=#879196;dashed=0;labelBackgroundColor=none;" parent="1" vertex="1">
                    <mxGeometry x="120" y="880" width="156" height="130" as="geometry"/>
                </mxCell>
                <mxCell id="bsmPjeTT9gQ6tpzZUVyZ-13" value="spoke-01-vm&lt;br&gt;10.13.1.4" style="sketch=0;aspect=fixed;html=1;points=[];align=center;image;fontSize=12;image=img/lib/mscae/VM_Linux.svg;dashed=1;fillColor=none;labelBackgroundColor=none;" parent="1" vertex="1">
                    <mxGeometry x="178.26" y="925" width="39.48" height="40" as="geometry"/>
                </mxCell>
                <mxCell id="bsmPjeTT9gQ6tpzZUVyZ-14" value="west europe" style="rounded=0;whiteSpace=wrap;html=1;dashed=1;fillColor=none;align=center;verticalAlign=bottom;labelBackgroundColor=none;strokeColor=#99CCFF;" parent="1" vertex="1">
                    <mxGeometry x="316" y="790" width="197" height="250" as="geometry"/>
                </mxCell>
                <mxCell id="bsmPjeTT9gQ6tpzZUVyZ-15" value="spoke-02&lt;br&gt;10.13.2.0/24" style="aspect=fixed;html=1;points=[];align=center;image;fontSize=12;image=img/lib/azure2/networking/Virtual_Networks.svg;dashed=1;fillColor=none;labelBackgroundColor=none;" parent="1" vertex="1">
                    <mxGeometry x="396.75" y="810" width="35.5" height="20" as="geometry"/>
                </mxCell>
                <mxCell id="bsmPjeTT9gQ6tpzZUVyZ-16" value="Subnet 10.13.2.0/24" style="sketch=0;outlineConnect=0;gradientColor=none;html=1;whiteSpace=wrap;fontSize=12;fontStyle=0;shape=mxgraph.aws4.group;grIcon=mxgraph.aws4.group_subnet;strokeColor=#879196;fillColor=none;verticalAlign=top;align=left;spacingLeft=30;fontColor=#879196;dashed=0;labelBackgroundColor=none;" parent="1" vertex="1">
                    <mxGeometry x="331" y="880" width="162" height="130" as="geometry"/>
                </mxCell>
                <mxCell id="bsmPjeTT9gQ6tpzZUVyZ-17" value="spoke-02-vm&lt;br&gt;10.13.2.4" style="sketch=0;aspect=fixed;html=1;points=[];align=center;image;fontSize=12;image=img/lib/mscae/VM_Linux.svg;dashed=1;fillColor=none;labelBackgroundColor=none;" parent="1" vertex="1">
                    <mxGeometry x="389.26" y="925" width="45.48" height="40" as="geometry"/>
                </mxCell>
                <mxCell id="bsmPjeTT9gQ6tpzZUVyZ-18" value="north europe" style="rounded=0;whiteSpace=wrap;html=1;dashed=1;fillColor=none;align=center;verticalAlign=bottom;labelBackgroundColor=none;strokeColor=#99CCFF;" parent="1" vertex="1">
                    <mxGeometry x="521" y="788" width="199" height="250" as="geometry"/>
                </mxCell>
                <mxCell id="bsmPjeTT9gQ6tpzZUVyZ-19" value="spoke-03&lt;br&gt;10.13.3.0/24" style="aspect=fixed;html=1;points=[];align=center;image;fontSize=12;image=img/lib/azure2/networking/Virtual_Networks.svg;dashed=1;fillColor=none;labelBackgroundColor=none;" parent="1" vertex="1">
                    <mxGeometry x="601.75" y="808" width="33.5" height="20" as="geometry"/>
                </mxCell>
                <mxCell id="bsmPjeTT9gQ6tpzZUVyZ-20" value="Subnet 10.13.3.0/24" style="sketch=0;outlineConnect=0;gradientColor=none;html=1;whiteSpace=wrap;fontSize=12;fontStyle=0;shape=mxgraph.aws4.group;grIcon=mxgraph.aws4.group_subnet;strokeColor=#879196;fillColor=none;verticalAlign=top;align=left;spacingLeft=30;fontColor=#879196;dashed=0;labelBackgroundColor=none;" parent="1" vertex="1">
                    <mxGeometry x="536" y="878" width="160" height="130" as="geometry"/>
                </mxCell>
                <mxCell id="bsmPjeTT9gQ6tpzZUVyZ-21" value="spoke-03-vm&lt;br&gt;10.13.3.4" style="sketch=0;aspect=fixed;html=1;points=[];align=center;image;fontSize=12;image=img/lib/mscae/VM_Linux.svg;dashed=1;fillColor=none;labelBackgroundColor=none;" parent="1" vertex="1">
                    <mxGeometry x="594.26" y="923" width="43.48" height="40" as="geometry"/>
                </mxCell>
                <mxCell id="bsmPjeTT9gQ6tpzZUVyZ-24" value="" style="endArrow=classic;startArrow=classic;html=1;rounded=0;exitX=0.528;exitY=-0.014;exitDx=0;exitDy=0;exitPerimeter=0;entryX=0.25;entryY=1;entryDx=0;entryDy=0;fillColor=#dae8fc;strokeColor=#6c8ebf;" parent="1" source="bsmPjeTT9gQ6tpzZUVyZ-11" target="bsmPjeTT9gQ6tpzZUVyZ-6" edge="1">
                    <mxGeometry width="50" height="50" relative="1" as="geometry">
                        <mxPoint x="400" y="720" as="sourcePoint"/>
                        <mxPoint x="450" y="670" as="targetPoint"/>
                    </mxGeometry>
                </mxCell>
                <mxCell id="bsmPjeTT9gQ6tpzZUVyZ-25" value="" style="endArrow=classic;startArrow=classic;html=1;rounded=0;exitX=0.5;exitY=0;exitDx=0;exitDy=0;entryX=0.764;entryY=0.992;entryDx=0;entryDy=0;entryPerimeter=0;fillColor=#dae8fc;strokeColor=#6c8ebf;" parent="1" edge="1">
                    <mxGeometry width="50" height="50" relative="1" as="geometry">
                        <mxPoint x="414.5" y="790" as="sourcePoint"/>
                        <mxPoint x="414.4200000000001" y="677.76" as="targetPoint"/>
                    </mxGeometry>
                </mxCell>
                <mxCell id="bsmPjeTT9gQ6tpzZUVyZ-26" value="" style="endArrow=classic;startArrow=classic;html=1;rounded=0;exitX=0.5;exitY=0;exitDx=0;exitDy=0;entryX=0.5;entryY=1;entryDx=0;entryDy=0;fillColor=#dae8fc;strokeColor=#6c8ebf;" parent="1" source="bsmPjeTT9gQ6tpzZUVyZ-18" target="bsmPjeTT9gQ6tpzZUVyZ-7" edge="1">
                    <mxGeometry width="50" height="50" relative="1" as="geometry">
                        <mxPoint x="424.5" y="800" as="sourcePoint"/>
                        <mxPoint x="424.4200000000001" y="687.76" as="targetPoint"/>
                    </mxGeometry>
                </mxCell>
                <mxCell id="R3BaY_sP8YUgwFMGayth-1" value="west europe" style="rounded=0;whiteSpace=wrap;html=1;dashed=1;fillColor=none;align=center;verticalAlign=bottom;labelBackgroundColor=none;strokeColor=#99CCFF;" parent="1" vertex="1">
                    <mxGeometry x="105" y="1154" width="825" height="250" as="geometry"/>
                </mxCell>
                <mxCell id="2" value="" style="edgeStyle=none;html=1;" parent="1" source="R3BaY_sP8YUgwFMGayth-2" target="R3BaY_sP8YUgwFMGayth-6" edge="1">
                    <mxGeometry relative="1" as="geometry"/>
                </mxCell>
                <mxCell id="R3BaY_sP8YUgwFMGayth-2" value="bastion-network&lt;br&gt;10.12.100.0/24&lt;br&gt;10.12.101.0/24" style="aspect=fixed;html=1;points=[];align=center;image;fontSize=12;image=img/lib/azure2/networking/Virtual_Networks.svg;dashed=1;fillColor=none;labelBackgroundColor=none;" parent="1" vertex="1">
                    <mxGeometry x="185.75" y="1174" width="29.5" height="20" as="geometry"/>
                </mxCell>
                <mxCell id="R3BaY_sP8YUgwFMGayth-3" value="Bastion 10.12.100.0/24" style="sketch=0;outlineConnect=0;gradientColor=none;html=1;whiteSpace=wrap;fontSize=12;fontStyle=0;shape=mxgraph.aws4.group;grIcon=mxgraph.aws4.group_subnet;strokeColor=#879196;fillColor=none;verticalAlign=top;align=left;spacingLeft=30;fontColor=#879196;dashed=0;labelBackgroundColor=none;" parent="1" vertex="1">
                    <mxGeometry x="120" y="1244" width="156" height="130" as="geometry"/>
                </mxCell>
                <mxCell id="R3BaY_sP8YUgwFMGayth-5" value="Default10.12.101.0/24" style="sketch=0;outlineConnect=0;gradientColor=none;html=1;whiteSpace=wrap;fontSize=12;fontStyle=0;shape=mxgraph.aws4.group;grIcon=mxgraph.aws4.group_subnet;strokeColor=#879196;fillColor=none;verticalAlign=top;align=left;spacingLeft=30;fontColor=#879196;dashed=0;labelBackgroundColor=none;" parent="1" vertex="1">
                    <mxGeometry x="300" y="1244" width="156" height="130" as="geometry"/>
                </mxCell>
                <mxCell id="R3BaY_sP8YUgwFMGayth-6" value="" style="sketch=0;aspect=fixed;html=1;points=[];align=center;image;fontSize=12;image=img/lib/mscae/VM_Scale_Set.svg;" parent="1" vertex="1">
                    <mxGeometry x="178.26" y="1294" width="50" height="50" as="geometry"/>
                </mxCell>
                <mxCell id="R3BaY_sP8YUgwFMGayth-7" value="" style="endArrow=classic;startArrow=classic;html=1;rounded=0;exitX=0.528;exitY=-0.014;exitDx=0;exitDy=0;exitPerimeter=0;entryX=0.25;entryY=1;entryDx=0;entryDy=0;fillColor=#dae8fc;strokeColor=#6c8ebf;" parent="1" edge="1">
                    <mxGeometry width="50" height="50" relative="1" as="geometry">
                        <mxPoint x="197.49799999999996" y="1154" as="sourcePoint"/>
                        <mxPoint x="197.9" y="1047.5" as="targetPoint"/>
                    </mxGeometry>
                </mxCell>
                <mxCell id="R3BaY_sP8YUgwFMGayth-8" value="" style="endArrow=classic;startArrow=classic;html=1;rounded=0;exitX=0.528;exitY=-0.014;exitDx=0;exitDy=0;exitPerimeter=0;entryX=0.25;entryY=1;entryDx=0;entryDy=0;fillColor=#dae8fc;strokeColor=#6c8ebf;" parent="1" edge="1">
                    <mxGeometry width="50" height="50" relative="1" as="geometry">
                        <mxPoint x="410.49799999999993" y="1154" as="sourcePoint"/>
                        <mxPoint x="410.9" y="1047.5" as="targetPoint"/>
                    </mxGeometry>
                </mxCell>
                <mxCell id="R3BaY_sP8YUgwFMGayth-9" value="" style="endArrow=classic;startArrow=classic;html=1;rounded=0;exitX=0.528;exitY=-0.014;exitDx=0;exitDy=0;exitPerimeter=0;entryX=0.25;entryY=1;entryDx=0;entryDy=0;fillColor=#dae8fc;strokeColor=#6c8ebf;" parent="1" edge="1">
                    <mxGeometry width="50" height="50" relative="1" as="geometry">
                        <mxPoint x="615.4979999999999" y="1154" as="sourcePoint"/>
                        <mxPoint x="615.9" y="1047.5" as="targetPoint"/>
                    </mxGeometry>
                </mxCell>
                <mxCell id="mRcd7wVkLLlFX1MhjAYP-1" value="we-hub-firewall" style="aspect=fixed;html=1;points=[];align=center;image;fontSize=12;image=img/lib/azure2/networking/Firewalls.svg;labelBackgroundColor=none;" parent="1" vertex="1">
                    <mxGeometry x="271.83" y="544" width="59.17" height="50" as="geometry"/>
                </mxCell>
                <mxCell id="WeN_qq11q_jQ914rV-p1-1" value="australia central" style="rounded=0;whiteSpace=wrap;html=1;dashed=1;fillColor=none;align=center;verticalAlign=bottom;labelBackgroundColor=none;" parent="1" vertex="1">
                    <mxGeometry x="730" y="520" width="200" height="160" as="geometry"/>
                </mxCell>
                <mxCell id="WeN_qq11q_jQ914rV-p1-2" value="australia-hub&lt;br&gt;10.12.3.0/24" style="sketch=0;aspect=fixed;html=1;points=[];align=center;image;fontSize=12;image=img/lib/mscae/Virtual_WANs.svg;labelBackgroundColor=none;" parent="1" vertex="1">
                    <mxGeometry x="805.5" y="545" width="50" height="50" as="geometry"/>
                </mxCell>
                <mxCell id="OjXa5NmKEdQDA4ArQA09-1" value="australia central" style="rounded=0;whiteSpace=wrap;html=1;dashed=1;fillColor=none;align=center;verticalAlign=bottom;labelBackgroundColor=none;strokeColor=#99CCFF;" parent="1" vertex="1">
                    <mxGeometry x="731" y="788" width="199" height="250" as="geometry"/>
                </mxCell>
                <mxCell id="OjXa5NmKEdQDA4ArQA09-2" value="spoke-04&lt;br&gt;10.13.4.0/24" style="aspect=fixed;html=1;points=[];align=center;image;fontSize=12;image=img/lib/azure2/networking/Virtual_Networks.svg;dashed=1;fillColor=none;labelBackgroundColor=none;" parent="1" vertex="1">
                    <mxGeometry x="811.75" y="808" width="33.5" height="20" as="geometry"/>
                </mxCell>
                <mxCell id="OjXa5NmKEdQDA4ArQA09-3" value="Subnet 10.13.4.0/24" style="sketch=0;outlineConnect=0;gradientColor=none;html=1;whiteSpace=wrap;fontSize=12;fontStyle=0;shape=mxgraph.aws4.group;grIcon=mxgraph.aws4.group_subnet;strokeColor=#879196;fillColor=none;verticalAlign=top;align=left;spacingLeft=30;fontColor=#879196;dashed=0;labelBackgroundColor=none;" parent="1" vertex="1">
                    <mxGeometry x="746" y="878" width="160" height="130" as="geometry"/>
                </mxCell>
                <mxCell id="OjXa5NmKEdQDA4ArQA09-4" value="spoke-04-vm&lt;br&gt;10.13.4.4" style="sketch=0;aspect=fixed;html=1;points=[];align=center;image;fontSize=12;image=img/lib/mscae/VM_Linux.svg;dashed=1;fillColor=none;labelBackgroundColor=none;" parent="1" vertex="1">
                    <mxGeometry x="804.26" y="923" width="43.48" height="40" as="geometry"/>
                </mxCell>
                <mxCell id="OjXa5NmKEdQDA4ArQA09-5" value="" style="endArrow=classic;startArrow=classic;html=1;rounded=0;exitX=0.5;exitY=0;exitDx=0;exitDy=0;entryX=0.5;entryY=1;entryDx=0;entryDy=0;fillColor=#dae8fc;strokeColor=#6c8ebf;" parent="1" edge="1">
                    <mxGeometry width="50" height="50" relative="1" as="geometry">
                        <mxPoint x="830" y="788" as="sourcePoint"/>
                        <mxPoint x="830.5" y="680" as="targetPoint"/>
                    </mxGeometry>
                </mxCell>
                <mxCell id="OjXa5NmKEdQDA4ArQA09-6" value="" style="endArrow=classic;startArrow=classic;html=1;rounded=0;exitX=0.528;exitY=-0.014;exitDx=0;exitDy=0;exitPerimeter=0;entryX=0.25;entryY=1;entryDx=0;entryDy=0;fillColor=#dae8fc;strokeColor=#6c8ebf;" parent="1" edge="1">
                    <mxGeometry width="50" height="50" relative="1" as="geometry">
                        <mxPoint x="825.498" y="1154" as="sourcePoint"/>
                        <mxPoint x="825.9000000000001" y="1047.5" as="targetPoint"/>
                    </mxGeometry>
                </mxCell>
            </root>
        </mxGraphModel>
    </diagram>
</mxfile>